<svg id="Слой_1" data-name="Слой 1" xmlns="http://www.w3.org/2000/svg" viewBox="0 0 517 92.44"><defs><style>.cls-1{fill:#202020;}</style></defs><title>logo-black</title><path class="cls-1" d="M273.46,317.56h-7.37V285h-.22l-13.25,32.16H247L233.78,285h-.23v32.54h-7.4V271.71h9.5l14,34.6H250l14-34.6h9.47Z" transform="translate(-148 -248.45)"/><path class="cls-1" d="M281.56,271.71h16.75q10.29,0,16,6t5.75,16.84q0,10.89-5.75,17t-16,6.07H281.56Zm8.2,6.93v32h7.69q6.93,0,10.61-4.14t3.69-11.94q0-7.69-3.72-11.81t-10.58-4.11Z" transform="translate(-148 -248.45)"/><path class="cls-1" d="M327.48,317.91a4.51,4.51,0,1,1,3.22-1.32A4.42,4.42,0,0,1,327.48,317.91Z" transform="translate(-148 -248.45)"/><path class="cls-1" d="M357.18,317.56h-9.4l-15.95-45.85h9l11.63,37.05h.19l11.63-37.05h8.83Z" transform="translate(-148 -248.45)"/><path class="cls-1" d="M398,271q9.88,0,15.68,6.39t5.8,17.31q0,10.94-5.78,17.3T398,318.32q-9.92,0-15.69-6.37t-5.79-17.3q0-10.92,5.79-17.31T398,271Zm0,6.26a12.68,12.68,0,0,0-10.37,4.7q-3.82,4.71-3.83,12.74t3.83,12.71a13.77,13.77,0,0,0,20.72,0q3.83-4.69,3.82-12.71t-3.82-12.74A12.67,12.67,0,0,0,398,277.21Z" transform="translate(-148 -248.45)"/><path class="cls-1" d="M433.41,299.93v17.63h-7.12V271.71h17.76q7.05,0,11.18,3.8a13.18,13.18,0,0,1,4.14,10.21,14.28,14.28,0,0,1-2.37,8.19,12.47,12.47,0,0,1-6.53,4.91l10.26,18.74h-8.2l-9.34-17.63Zm0-22.24v16.49h10a8.86,8.86,0,0,0,6.39-2.16,8.1,8.1,0,0,0,2.26-6.11,7.83,7.83,0,0,0-2.36-6,9.11,9.11,0,0,0-6.48-2.19Z" transform="translate(-148 -248.45)"/><path class="cls-1" d="M486.05,271q9.88,0,15.68,6.39t5.8,17.31q0,10.94-5.78,17.3t-15.7,6.37q-9.9,0-15.69-6.37t-5.78-17.3q0-10.92,5.78-17.31T486.05,271Zm0,6.26a12.68,12.68,0,0,0-10.37,4.7q-3.82,4.71-3.83,12.74t3.83,12.71a13.77,13.77,0,0,0,20.72,0q3.83-4.69,3.83-12.71t-3.83-12.74A12.67,12.67,0,0,0,486.05,277.21Z" transform="translate(-148 -248.45)"/><path class="cls-1" d="M514.3,271.71h17.19a15.35,15.35,0,0,1,10.82,26,15.09,15.09,0,0,1-11,4.21h-9.85v15.66H514.3Zm7.12,6v18.2h8.16q4.65,0,7.18-2.38a10.16,10.16,0,0,0,0-13.44q-2.52-2.39-7.17-2.38Z" transform="translate(-148 -248.45)"/><path class="cls-1" d="M578.89,317.56l-4.19-12.39H557.23L553,317.56h-7.4l16.55-45.85h7.69l16.56,45.85Zm-13-38.22L559,299.45h13.85l-6.83-20.11Z" transform="translate(-148 -248.45)"/><path class="cls-1" d="M620.58,311.4v6.16h-29.1V271.71h29.1v6.13h-22v13.41h20.82v5.91H598.59V311.4Z" transform="translate(-148 -248.45)"/><path class="cls-1" d="M648.64,317.56h-7.79l-16.36-45.85h7.72l12.49,37.84h.19l12.52-37.84H665Z" transform="translate(-148 -248.45)"/><path class="cls-1" d="M155.87,340.89H148l27-92.44h7.87Z" transform="translate(-148 -248.45)"/><path class="cls-1" d="M190.73,340.89h-7.87l27-92.44h7.88Z" transform="translate(-148 -248.45)"/></svg>